# File created by Blade
# Date/Time:  Thu Sep 25 19:32:06 2014
# Frame Rate: 120.000 fps
#------------------------------------------------------
:FULLY-SPECIFIED
:DEGREES
1281
root -2.752568 31.663293 -3.969985 6.466708 10.245808 4.654828
Spine -0.181376 9.866331 44.231014
Head -3.516956 -23.289835 7.853011
LeftShoulder -9.738043 3.784400 38.764609
LeftArm 2.517570 -58.594028 -2.128360
LeftForeArm -40.605497 -0.000000 19.157932
LeftHand -6.229739 -0.000000 -11.055769
LeftHandThumb1 -26.253704 0.000000 33.147579
RightShoulder -10.033595 10.202504 -13.479492
RightArm -12.739862 -39.619143 72.281837
RightForeArm 4.675956 -0.000000 10.266818
RightHand -4.148430 -0.000000 14.915287
RightHandThumb1 -24.326973 -0.000000 -32.862282
LeftUpLeg 4.014015 -3.362412 -20.253296
LeftLeg -1.895342 -0.000000 0.000000
LeftFoot -7.779772 -0.711490 -6.368154
LeftToeBase 9.763613 -0.000000 -0.000000
RightUpLeg -25.394897 -0.476333 4.224756
RightLeg 35.584710 -0.000000 -0.000000
RightFoot -17.010331 -18.152296 -3.667940
RightToeBase -3.577202 -0.000000 0.000000
1282
root -2.755202 31.664737 -3.986822 6.449806 10.187753 4.687116
Spine -0.141387 9.810147 44.237381
Head -3.582529 -23.257955 7.921270
LeftShoulder -9.682274 3.785799 38.780620
LeftArm 2.616822 -58.489971 -2.196404
LeftForeArm -40.533195 -0.000000 19.160362
LeftHand -6.361118 0.000000 -11.019853
LeftHandThumb1 -26.253704 0.000000 33.147579
RightShoulder -10.000306 10.237989 -13.456907
RightArm -12.740668 -39.944447 72.325930
RightForeArm 4.528469 -0.000000 10.223887
RightHand -4.191591 0.000000 14.976554
RightHandThumb1 -24.326973 -0.000000 -32.862282
LeftUpLeg 3.975988 -3.289201 -20.281768
LeftLeg -1.863458 -0.000000 0.000000
LeftFoot -7.796978 -0.740157 -6.491124
LeftToeBase 9.886110 -0.000000 -0.000000
RightUpLeg -25.398993 -0.391166 4.181815
RightLeg 35.572035 -0.000000 -0.000000
RightFoot -16.999016 -18.180380 -3.631373
RightToeBase -3.523269 -0.000000 0.000000
1283
root -2.757791 31.666538 -4.001531 6.424461 10.151808 4.708572
Spine -0.109731 9.741280 44.259925
Head -3.669647 -23.188703 8.004673
LeftShoulder -9.645706 3.743361 38.802608
LeftArm 2.764728 -58.366982 -2.312288
LeftForeArm -40.456005 0.000000 19.158552
LeftHand -6.261501 -0.000000 -11.149366
LeftHandThumb1 -26.253704 0.000000 33.147579
RightShoulder -9.982568 10.249920 -13.441757
RightArm -12.721660 -40.316533 72.376824
RightForeArm 4.393246 0.000000 10.172913
RightHand -4.224296 -0.000000 15.004186
RightHandThumb1 -24.326973 -0.000000 -32.862282
LeftUpLeg 3.947314 -3.236308 -20.299770
LeftLeg -1.819628 -0.000000 0.000000
LeftFoot -7.822991 -0.748679 -6.583403
LeftToeBase 9.897221 -0.000000 -0.000000
RightUpLeg -25.375007 -0.369073 4.158315
RightLeg 35.522551 -0.000000 -0.000000
RightFoot -16.968136 -18.167425 -3.684357
RightToeBase -3.510135 -0.000000 0.000000
1284
root -2.762497 31.668901 -4.015471 6.397824 10.129529 4.709702
Spine -0.086805 9.672020 44.308500
Head -3.769541 -23.133315 8.084371
LeftShoulder -9.610764 3.691351 38.825636
LeftArm 2.884361 -58.249458 -2.418898
LeftForeArm -40.394170 0.000000 19.183749
LeftHand -6.383317 -0.000000 -10.962717
LeftHandThumb1 -26.253704 0.000000 33.147579
RightShoulder -9.959091 10.230377 -13.417160
RightArm -12.700951 -40.660068 72.409460
RightForeArm 4.270609 -0.000000 10.159289
RightHand -4.274660 -0.000000 15.078695
RightHandThumb1 -24.326973 -0.000000 -32.862282
LeftUpLeg 3.916381 -3.189466 -20.292497
LeftLeg -1.767566 -0.000000 0.000000
LeftFoot -7.847556 -0.783200 -6.688212
LeftToeBase 9.970704 -0.000000 -0.000000
RightUpLeg -25.357302 -0.334284 4.158007
RightLeg 35.480186 -0.000000 -0.000000
RightFoot -16.918410 -18.186444 -3.692248
RightToeBase -3.496951 -0.000000 0.000000
1285
root -2.766036 31.670745 -4.031850 6.380434 10.111901 4.728682
Spine -0.069303 9.601157 44.327422
Head -3.878581 -23.055532 8.202762
LeftShoulder -9.572171 3.566086 38.877625
LeftArm 2.988899 -58.057224 -2.506745
LeftForeArm -40.333785 -0.000000 19.151147
LeftHand -6.351406 -0.000000 -11.304567
LeftHandThumb1 -26.253704 0.000000 33.147579
RightShoulder -9.939810 10.214154 -13.383507
RightArm -12.677420 -41.036369 72.442841
RightForeArm 4.334881 -0.000000 10.136954
RightHand -4.365407 0.000000 15.205400
RightHandThumb1 -24.326973 -0.000000 -32.862282
LeftUpLeg 3.876794 -3.167378 -20.308732
LeftLeg -1.715728 -0.000000 0.000000
LeftFoot -7.857143 -0.786195 -6.709088
LeftToeBase 9.984784 -0.000000 -0.000000
RightUpLeg -25.349108 -0.308600 4.138454
RightLeg 35.439529 -0.000000 -0.000000
RightFoot -16.871751 -18.216399 -3.747981
RightToeBase -3.440183 -0.000000 0.000000
1286
root -2.769819 31.673182 -4.048083 6.369928 10.099255 4.740840
Spine -0.058193 9.524836 44.361329
Head -3.979293 -22.988690 8.285405
LeftShoulder -9.574504 3.657719 38.848622
LeftArm 3.177125 -58.096493 -2.616202
LeftForeArm -40.132258 -0.000000 19.144873
LeftHand -6.478634 0.000000 -11.173736
LeftHandThumb1 -26.253704 0.000000 33.147579
RightShoulder -9.930698 10.191643 -13.354333
RightArm -12.638586 -41.402355 72.468574
RightForeArm 4.484996 0.000000 10.089669
RightHand -4.353906 -0.000000 15.232489
RightHandThumb1 -24.326973 -0.000000 -32.862282
LeftUpLeg 3.833367 -3.161351 -20.320909
LeftLeg -1.676842 -0.000000 0.000000
LeftFoot -7.849580 -0.755573 -6.707857
LeftToeBase 9.948616 -0.000000 -0.000000
RightUpLeg -25.339460 -0.280975 4.126689
RightLeg 35.379623 -0.000000 -0.000000
RightFoot -16.814929 -18.241680 -3.805447
RightToeBase -3.420212 -0.000000 0.000000
1287
root -2.773527 31.674978 -4.064130 6.357295 10.080762 4.753832
Spine -0.037239 9.459138 44.384669
Head -4.093707 -22.916281 8.402970
LeftShoulder -9.544905 3.543243 38.860909
LeftArm 3.237744 -57.929535 -2.608486
LeftForeArm -40.096407 -0.000000 19.083866
LeftHand -6.508091 -0.000000 -11.293467
LeftHandThumb1 -26.253704 0.000000 33.147579
RightShoulder -9.919201 10.206630 -13.316574
RightArm -12.638767 -41.567529 72.490501
RightForeArm 4.608508 0.000000 10.020989
RightHand -4.290399 0.000000 15.284093
RightHandThumb1 -24.326973 -0.000000 -32.862282
LeftUpLeg 3.798513 -3.164505 -20.334942
LeftLeg -1.644801 -0.000000 0.000000
LeftFoot -7.845899 -0.721507 -6.704247
LeftToeBase 9.950254 -0.000000 -0.000000
RightUpLeg -25.335147 -0.244771 4.114030
RightLeg 35.332057 -0.000000 -0.000000
RightFoot -16.751290 -18.284672 -3.852567
RightToeBase -3.427659 -0.000000 0.000000
1288
root -2.777698 31.677715 -4.080279 6.341199 10.067108 4.765261
Spine -0.012205 9.413465 44.417698
Head -4.242509 -22.853805 8.531052
LeftShoulder -9.548518 3.591415 38.870505
LeftArm 3.452508 -58.022643 -2.800448
LeftForeArm -40.027385 -0.000000 19.056657
LeftHand -6.449015 -0.000000 -11.416218
LeftHandThumb1 -26.253704 0.000000 33.147579
RightShoulder -9.905761 10.183564 -13.275777
RightArm -12.649957 -41.540492 72.459292
RightForeArm 4.523004 -0.000000 10.070419
RightHand -4.357487 -0.000000 15.412415
RightHandThumb1 -24.326973 -0.000000 -32.862282
LeftUpLeg 3.771343 -3.162980 -20.347141
LeftLeg -1.625907 -0.000000 0.000000
LeftFoot -7.832030 -0.691626 -6.743919
LeftToeBase 9.980439 -0.000000 -0.000000
RightUpLeg -25.323420 -0.204145 4.098776
RightLeg 35.283715 -0.000000 -0.000000
RightFoot -16.733757 -18.299415 -3.841499
RightToeBase -3.345177 -0.000000 0.000000
1289
root -2.781461 31.680338 -4.095353 6.318843 10.050555 4.773224
Spine 0.007833 9.380080 44.458380
Head -4.332507 -22.826168 8.604121
LeftShoulder -9.482195 3.580855 38.884150
LeftArm 3.472759 -57.973165 -2.818636
LeftForeArm -40.218811 -0.000000 19.008163
LeftHand -6.294125 0.000000 -11.587933
LeftHandThumb1 -26.253704 0.000000 33.147579
RightShoulder -9.885577 10.181155 -13.250403
RightArm -12.704509 -41.429311 72.452762
RightForeArm 4.553250 -0.000000 10.099511
RightHand -4.301433 -0.000000 15.485459
RightHandThumb1 -24.326973 -0.000000 -32.862282
LeftUpLeg 3.754973 -3.146725 -20.356235
LeftLeg -1.611983 -0.000000 0.000000
LeftFoot -7.831428 -0.670557 -6.741596
LeftToeBase 10.024947 -0.000000 -0.000000
RightUpLeg -25.303576 -0.176292 4.091359
RightLeg 35.229654 -0.000000 -0.000000
RightFoot -16.689197 -18.333440 -3.865057
RightToeBase -3.368769 -0.000000 0.000000
1290
root -2.785903 31.682779 -4.110622 6.305265 10.024323 4.784091
Spine 0.032319 9.332667 44.489815
Head -4.417122 -22.749428 8.712327
LeftShoulder -9.447444 3.538390 38.895431
LeftArm 3.496967 -57.897886 -2.814095
LeftForeArm -40.303280 -0.000000 18.977728
LeftHand -6.364400 -0.000000 -11.678550
LeftHandThumb1 -26.253704 0.000000 33.147579
RightShoulder -9.901246 10.192688 -13.222673
RightArm -12.728655 -41.580258 72.467498
RightForeArm 4.800103 -0.000000 10.083028
RightHand -4.384283 -0.000000 15.609671
RightHandThumb1 -24.326973 -0.000000 -32.862282
LeftUpLeg 3.733263 -3.138344 -20.367840
LeftLeg -1.611420 -0.000000 0.000000
LeftFoot -7.814099 -0.633791 -6.804528
LeftToeBase 10.013929 -0.000000 -0.000000
RightUpLeg -25.296934 -0.135754 4.081492
RightLeg 35.183343 -0.000000 -0.000000
RightFoot -16.644274 -18.375500 -3.900315
RightToeBase -3.317896 -0.000000 0.000000
1291
root -2.789982 31.684919 -4.126609 6.286991 9.999409 4.797151
Spine 0.074159 9.267424 44.518907
Head -4.546276 -22.672077 8.823844
LeftShoulder -9.470194 3.510398 38.918600
LeftArm 3.621730 -57.878194 -2.919401
LeftForeArm -40.368655 -0.000000 18.941194
LeftHand -6.285711 0.000000 -11.855661
LeftHandThumb1 -26.253704 0.000000 33.147579
RightShoulder -9.914582 10.240052 -13.205246
RightArm -12.759897 -41.628961 72.491509
RightForeArm 4.874642 0.000000 10.047032
RightHand -4.350456 -0.000000 15.626283
RightHandThumb1 -24.326973 -0.000000 -32.862282
LeftUpLeg 3.715471 -3.123366 -20.382328
LeftLeg -1.607331 -0.000000 0.000000
LeftFoot -7.806731 -0.601733 -6.840198
LeftToeBase 10.031225 -0.000000 -0.000000
RightUpLeg -25.293193 -0.088481 4.062445
RightLeg 35.153317 -0.000000 -0.000000
RightFoot -16.626362 -18.383249 -3.880793
RightToeBase -3.251998 -0.000000 0.000000
1292
root -2.794392 31.686393 -4.143435 6.284863 9.980779 4.815246
Spine 0.092098 9.214205 44.535869
Head -4.661304 -22.592609 8.933006
LeftShoulder -9.461061 3.555538 38.932933
LeftArm 3.663904 -57.938865 -2.946681
LeftForeArm -40.405553 -0.000000 18.883195
LeftHand -6.321072 -0.000000 -12.024703
LeftHandThumb1 -26.253704 0.000000 33.147579
RightShoulder -9.901194 10.234152 -13.170381
RightArm -12.772035 -41.573367 72.482381
RightForeArm 4.891439 -0.000000 10.065745
RightHand -4.324178 -0.000000 15.646783
RightHandThumb1 -24.326973 -0.000000 -32.862282
LeftUpLeg 3.688837 -3.112077 -20.398059
LeftLeg -1.617081 -0.000000 0.000000
LeftFoot -7.787695 -0.588655 -6.903121
LeftToeBase 10.122063 -0.000000 -0.000000
RightUpLeg -25.310936 -0.080578 4.050506
RightLeg 35.127977 -0.000000 -0.000000
RightFoot -16.579561 -18.402516 -3.916347
RightToeBase -3.269634 -0.000000 0.000000
